<svg xmlns="http://www.w3.org/2000/svg" viewBox="0 0 100 100"><defs><style>.cls-1{opacity:0.24;}.cls-2{fill:#fffff5;}</style></defs><g id="Layer_2" data-name="Layer 2"><g id="Layer_1-2" data-name="Layer 1"><g class="cls-1"><path d="M85.36,14.64a50,50,0,1,0,0,70.72A50,50,0,0,0,85.36,14.64ZM76.87,68.38l-8.49,8.49L50,58.49,31.62,76.87l-8.49-8.49L41.51,50,23.13,31.62l8.49-8.49L50,41.51,68.38,23.13l8.49,8.49L58.49,50Z"/></g><polygon class="cls-2" points="76.87 68.39 68.39 76.87 50 58.48 31.61 76.87 23.13 68.39 41.52 50 23.13 31.61 31.61 23.13 50 41.52 68.39 23.13 76.87 31.61 58.48 50 76.87 68.39"/></g></g></svg>