<?xml version="1.0" encoding="utf-8"?>
<!-- Generator: Adobe Illustrator 24.1.2, SVG Export Plug-In . SVG Version: 6.00 Build 0)  -->
<svg version="1.1" id="Ebene_1" xmlns="http://www.w3.org/2000/svg" xmlns:xlink="http://www.w3.org/1999/xlink" x="0px" y="0px"
	 viewBox="0 0 100 100" style="enable-background:new 0 0 100 100;" xml:space="preserve">
<style type="text/css">
	.st0{fill:#FFFFFF;}
</style>
<g>
	<path class="st0" d="M74.3,32.5c-0.6-1.4-1.2-2.4-2.3-3.5c-1.1-1.1-2.1-1.7-3.5-2.3c-1.1-0.4-2.7-0.9-5.7-1.1
		c-3.2-0.1-4.2-0.2-12.3-0.2s-9.1,0-12.3,0.2c-3,0.1-4.6,0.6-5.7,1.1c-1.4,0.6-2.4,1.2-3.5,2.3c-1.1,1.1-1.7,2.1-2.3,3.5
		c-0.4,1.1-0.9,2.7-1.1,5.7c-0.1,3.2-0.2,4.2-0.2,12.3s0,9.1,0.2,12.3c0.1,3,0.6,4.6,1.1,5.7c0.6,1.4,1.2,2.4,2.3,3.5
		s2.1,1.7,3.5,2.3c1.1,0.4,2.7,0.9,5.7,1.1c3.2,0.1,4.2,0.2,12.3,0.2s9.1,0,12.3-0.2c3-0.1,4.6-0.6,5.7-1.1c1.4-0.6,2.4-1.2,3.5-2.3
		c1.1-1.1,1.7-2.1,2.3-3.5c0.4-1.1,0.9-2.7,1.1-5.7c0.1-3.2,0.2-4.2,0.2-12.3s0-9.1-0.2-12.3C75.2,35.2,74.7,33.6,74.3,32.5z
		 M50.5,66.2c-8.6,0-15.7-7-15.7-15.7s7-15.7,15.7-15.7s15.7,7,15.7,15.7S59.1,66.2,50.5,66.2z M66.8,37.9c-2,0-3.7-1.6-3.7-3.7
		s1.6-3.7,3.7-3.7s3.7,1.6,3.7,3.7S68.8,37.9,66.8,37.9z"/>
	<circle class="st0" cx="50.5" cy="50.5" r="10.2"/>
	<path class="st0" d="M50,0.5C22.7,0.5,0.5,22.7,0.5,50S22.7,99.5,50,99.5S99.5,77.3,99.5,50S77.3,0.5,50,0.5z M80.8,63.1
		c-0.1,3.2-0.7,5.5-1.4,7.4c-0.8,2-1.8,3.7-3.5,5.4s-3.4,2.7-5.4,3.5c-1.9,0.8-4.2,1.3-7.4,1.4C59.8,81,58.8,81,50.5,81
		s-9.3,0-12.6-0.2c-3.2-0.1-5.5-0.7-7.4-1.4c-2-0.8-3.7-1.8-5.4-3.5s-2.7-3.4-3.5-5.4c-0.8-1.9-1.3-4.2-1.4-7.4
		C20,59.8,20,58.8,20,50.5s0-9.3,0.2-12.6c0.1-3.2,0.7-5.5,1.4-7.4c0.8-2,1.8-3.7,3.5-5.4s3.4-2.7,5.4-3.5c1.9-0.8,4.2-1.3,7.4-1.4
		C41.2,20,42.2,20,50.5,20s9.3,0,12.6,0.2c3.2,0.1,5.5,0.7,7.4,1.4c2,0.8,3.7,1.8,5.4,3.5s2.7,3.4,3.5,5.4c0.8,1.9,1.3,4.2,1.4,7.4
		C81,41.2,81,42.2,81,50.5S81,59.8,80.8,63.1z"/>
</g>
</svg>
