<svg xmlns="http://www.w3.org/2000/svg" viewBox="0 0 657.83 662"><defs><style>.cls-1{fill:#fff;}</style></defs><g id="Layer_2" data-name="Layer 2"><g id="Layer_1-2" data-name="Layer 1"><polygon class="cls-1" points="0 47.42 0 47.42 0 47.41 0 47.42"/><path class="cls-1" d="M609.21,0H48.62C21.78,0,0,21.24,0,47.42V614.6C0,640.77,21.78,662,48.62,662H609.21c26.86,0,48.62-21.23,48.62-47.41V47.42C657.83,21.25,636.07,0,609.21,0ZM100.05,554.16V255.23h99.36V554.16Zm49.7-339.74h-.65c-33.35,0-54.91-22.95-54.91-51.64,0-29.33,22.21-51.65,56.22-51.65s54.9,22.32,55.55,51.65C206,191.47,184.39,214.42,149.75,214.42ZM557.69,554.16H458.34V394.26c0-40.19-14.38-67.6-50.33-67.6-27.45,0-43.8,18.48-51,36.34-2.62,6.38-3.27,15.32-3.27,24.24V554.16H254.41s1.3-270.89,0-298.93h99.35v42.32c13.21-20.36,36.84-49.34,89.55-49.34,65.37,0,114.38,42.73,114.38,134.54Z"/></g></g></svg>