<?xml version="1.0" encoding="utf-8"?>
<!-- Generator: Adobe Illustrator 24.1.2, SVG Export Plug-In . SVG Version: 6.00 Build 0)  -->
<svg version="1.1" id="Ebene_1" xmlns="http://www.w3.org/2000/svg" xmlns:xlink="http://www.w3.org/1999/xlink" x="0px" y="0px"
	 viewBox="0 0 25 20" style="enable-background:new 0 0 25 20;" xml:space="preserve">
<style type="text/css">
	.st0{fill:#FFFFFF;}
</style>
<path class="st0" d="M22.3,16l-6-6l6-6L22.3,16L22.3,16z M3.7,17.1l6-6l0.2,0.2c1.4,1.3,3.6,1.3,5,0l0.2-0.2l6,6
	C21.2,17.1,3.7,17.1,3.7,17.1z M2.6,4l6,6l-6,6C2.6,16,2.6,4,2.6,4z M21.2,2.9l-7.3,7.3c-0.7,0.7-2.1,0.7-2.8,0L3.7,2.9L21.2,2.9
	L21.2,2.9z M1,1.3v17.4h23V1.3C24,1.3,1,1.3,1,1.3z"/>
</svg>
