<svg xmlns="http://www.w3.org/2000/svg" viewBox="0 0 1578.74 1056.6"><defs><style>.cls-1{fill:#ffcd3e;}</style></defs><g id="Layer_2" data-name="Layer 2"><g id="Layer_1-2" data-name="Layer 1"><path class="cls-1" d="M25.3,185.42a1.65,1.65,0,1,1-1.64-1.64A1.64,1.64,0,0,1,25.3,185.42Zm106.53,24.17a1.27,1.27,0,1,0,1.26,1.26A1.26,1.26,0,0,0,131.83,209.59Zm-43.9-59.21A1.65,1.65,0,1,0,89.57,152,1.64,1.64,0,0,0,87.93,150.38Zm-61.24-7.59a1.64,1.64,0,1,0,1.65,1.64A1.64,1.64,0,0,0,26.69,142.79Zm75.79,34.41a1.27,1.27,0,1,0,1.26,1.26A1.26,1.26,0,0,0,102.48,177.2ZM139.13,341a1.64,1.64,0,1,0,1.15-2A1.65,1.65,0,0,0,139.13,341Zm45.42-68a1.65,1.65,0,1,0,1.16-2A1.65,1.65,0,0,0,184.55,273ZM90,287.78a1.64,1.64,0,1,0,1.15-2A1.65,1.65,0,0,0,90,287.78Zm131.57-61.24a1.65,1.65,0,1,0,1.16-2A1.66,1.66,0,0,0,221.55,226.54Zm-67.1,40.32a1.64,1.64,0,1,0,1.16-2A1.65,1.65,0,0,0,154.45,266.86ZM192.68,76a1.65,1.65,0,0,0,0,3.29,1.65,1.65,0,1,0,0-3.29Zm53.64,61.73a1.65,1.65,0,1,0,1.65,1.65A1.65,1.65,0,0,0,246.32,137.72ZM257,42.59a1.65,1.65,0,0,0,0,3.29,1.65,1.65,0,1,0,0-3.29ZM195.72,35a1.65,1.65,0,1,0,0,3.29,1.65,1.65,0,0,0,0-3.29ZM150.77,373.87a1.64,1.64,0,1,0,1.15-2A1.64,1.64,0,0,0,150.77,373.87Zm202.81-208.7a1.64,1.64,0,1,0,1.15-2A1.64,1.64,0,0,0,353.58,165.17ZM259,180a1.64,1.64,0,1,0,1.15-2A1.64,1.64,0,0,0,259,180Zm131.58-61.23a1.64,1.64,0,1,0,1.15-2A1.63,1.63,0,0,0,390.58,118.75ZM223.91,498.31a1.65,1.65,0,1,0,2.27.51A1.66,1.66,0,0,0,223.91,498.31Zm-41.8-86.12a1.64,1.64,0,0,0-.51,2.27,1.65,1.65,0,0,0,2.78-1.76A1.64,1.64,0,0,0,182.11,412.19Zm-55.83,26.26a1.65,1.65,0,0,0,1.76,2.79,1.65,1.65,0,0,0-1.76-2.79Zm203,25.82a1.65,1.65,0,1,0-.11-2.32A1.64,1.64,0,0,0,329.26,464.27ZM264.77,454a1.26,1.26,0,1,0,1.71-1.86,1.26,1.26,0,0,0-1.71,1.86Zm-7.58,73.32a1.65,1.65,0,1,0-.11-2.32A1.64,1.64,0,0,0,257.19,527.28Zm78.57-122a1.65,1.65,0,1,0-.1-2.33A1.66,1.66,0,0,0,335.76,405.27Zm-71.2,92.4a1.27,1.27,0,1,0-.08-1.79A1.27,1.27,0,0,0,264.56,497.67ZM309.3,316.94a1.64,1.64,0,0,0-.51,2.27,1.65,1.65,0,1,0,.51-2.27Zm26.93-59.49a1.27,1.27,0,0,0,1.35,2.14,1.27,1.27,0,1,0-1.35-2.14ZM267.5,230.81a1.65,1.65,0,1,0,2.27.52A1.64,1.64,0,0,0,267.5,230.81Zm-55.83,26.27a1.65,1.65,0,1,0,2.27.51A1.66,1.66,0,0,0,211.67,257.08ZM412.54,364.66a1.65,1.65,0,1,0-.1-2.33A1.64,1.64,0,0,0,412.54,364.66Zm2.11-81.76a1.65,1.65,0,1,0-.1-2.33A1.64,1.64,0,0,0,414.65,282.9ZM348.78,543.29a1.27,1.27,0,1,0,1.74.39A1.27,1.27,0,0,0,348.78,543.29Zm-6.2-197.38a1.65,1.65,0,1,0-.11-2.33A1.64,1.64,0,0,0,342.58,345.91Zm78.57-122a1.64,1.64,0,1,0-.1-2.32A1.65,1.65,0,0,0,421.15,223.89Zm-38.52,169a1.65,1.65,0,1,0-.11-2.33A1.64,1.64,0,0,0,382.63,392.85ZM787.89,504.43a1.64,1.64,0,1,0-.66-2.23A1.64,1.64,0,0,0,787.89,504.43Zm-17.38-79.92a1.64,1.64,0,1,0-.65-2.23A1.63,1.63,0,0,0,770.51,424.51Zm-65.09,5.31a1.27,1.27,0,1,0-.5-1.72A1.28,1.28,0,0,0,705.42,429.82Zm10.05,73a1.65,1.65,0,1,0-.65-2.23A1.66,1.66,0,0,0,715.47,502.84Zm50.06,36.08a1.64,1.64,0,1,0-.66-2.23A1.64,1.64,0,0,0,765.53,538.92Zm-18.38-38.34a.5.5,0,0,0-.69.2.52.52,0,0,0,.2.69.51.51,0,0,0,.69-.21A.49.49,0,0,0,747.15,500.58ZM715.6,472.33a1.27,1.27,0,1,0-.5-1.72A1.28,1.28,0,0,0,715.6,472.33Zm46.56-161.25a1.64,1.64,0,1,0-2,1.22A1.65,1.65,0,0,0,762.16,311.08ZM689.64,348.9a1.64,1.64,0,1,0-2,1.22A1.65,1.65,0,0,0,689.64,348.9Zm22.27,61.39a1.27,1.27,0,1,0-1.53.94A1.28,1.28,0,0,0,711.91,410.29Zm67.79-28.93a1.65,1.65,0,1,0-2,1.22A1.65,1.65,0,0,0,779.7,381.36Zm-144.81-9.53a1.64,1.64,0,1,0-2,1.22A1.65,1.65,0,0,0,634.89,371.83Zm78.22-3.11a1.65,1.65,0,1,0-3.2-.77,1.65,1.65,0,0,0,3.2.77Zm-125.25,149a1.64,1.64,0,1,0-.65-2.23A1.63,1.63,0,0,0,587.86,517.74Zm-17.38-79.92a1.64,1.64,0,1,0-.65-2.23A1.65,1.65,0,0,0,570.48,437.82Zm-55,78.33a1.64,1.64,0,1,0-.66-2.23A1.64,1.64,0,0,0,515.45,516.15Zm50,36.08a1.64,1.64,0,1,0-.65-2.23A1.63,1.63,0,0,0,565.5,552.23Zm-49.92-66.59a1.26,1.26,0,1,0-.51-1.72A1.26,1.26,0,0,0,515.58,485.64Zm252.18-209a1.64,1.64,0,1,0-2,1.22A1.65,1.65,0,0,0,767.76,276.64ZM489.61,362.21a1.64,1.64,0,1,0-2,1.22A1.64,1.64,0,0,0,489.61,362.21Zm90.06,32.46a1.65,1.65,0,1,0-2,1.22A1.64,1.64,0,0,0,579.67,394.67Zm-144.81-9.53a1.64,1.64,0,1,0-2,1.22A1.64,1.64,0,0,0,434.86,385.14ZM844.7,344.45a1.64,1.64,0,1,0-2,1.22A1.65,1.65,0,0,0,844.7,344.45ZM763.41,132.37a1.65,1.65,0,1,0-1.74-1.54A1.65,1.65,0,0,0,763.41,132.37ZM758.68,228a1.64,1.64,0,1,0-1.74-1.54A1.64,1.64,0,0,0,758.68,228Zm61.59,3.79a1.64,1.64,0,1,0-1.75-1.54A1.64,1.64,0,0,0,820.27,231.77ZM654.66,111.6a1.64,1.64,0,1,0-1,2.08A1.64,1.64,0,0,0,654.66,111.6ZM748.15,91a1.65,1.65,0,1,0-1,2.09A1.65,1.65,0,0,0,748.15,91ZM620.61,160.22a1.65,1.65,0,0,0-3.12,1.06,1.65,1.65,0,0,0,3.12-1.06Zm106.84-46.83a1.26,1.26,0,1,0-.79,1.61A1.26,1.26,0,0,0,727.45,113.39ZM658.72,308.7a1.64,1.64,0,1,0-1.74-1.54A1.64,1.64,0,0,0,658.72,308.7Zm-57.35-58.31a1.64,1.64,0,1,0-1.74-1.54A1.63,1.63,0,0,0,601.37,250.39ZM596.64,346a1.65,1.65,0,1,0-1.74-1.54A1.65,1.65,0,0,0,596.64,346Zm61.59,3.79a1.64,1.64,0,1,0-1.75-1.54A1.66,1.66,0,0,0,658.23,349.8ZM533.76,158.94a1.64,1.64,0,1,0-3.11,1.06,1.64,1.64,0,0,0,3.11-1.06Zm-41.14,70.68a1.64,1.64,0,1,0-1,2.09A1.64,1.64,0,0,0,492.62,229.62ZM586.11,209a1.65,1.65,0,1,0-1,2.09A1.65,1.65,0,0,0,586.11,209ZM458.57,278.24a1.65,1.65,0,1,0-1,2.09A1.64,1.64,0,0,0,458.57,278.24Zm115-129.65a1.64,1.64,0,1,0-1,2.09A1.65,1.65,0,0,0,573.54,148.59Zm-88.9-37.76a1.64,1.64,0,1,0-1.74-1.54A1.64,1.64,0,0,0,484.64,110.83ZM427.29,52.52A1.64,1.64,0,1,0,425.54,51,1.64,1.64,0,0,0,427.29,52.52ZM375.08,91.76a1.27,1.27,0,1,0-.15-2.53,1.27,1.27,0,1,0,.15,2.53ZM412,11.13a1.64,1.64,0,1,0-1,2.09A1.65,1.65,0,0,0,412,11.13Zm1089.42,300.7a1.65,1.65,0,1,0-1.64-1.64A1.65,1.65,0,0,0,1501.44,311.83Zm-54.53,35.93a1.27,1.27,0,1,0-1.26-1.26A1.27,1.27,0,0,0,1446.91,347.76Zm43.9,59.21a1.65,1.65,0,1,0-1.64-1.65A1.65,1.65,0,0,0,1490.81,407ZM1578,337.13a.76.76,0,1,0-.76-.76A.76.76,0,0,0,1578,337.13ZM1439.61,216.37a1.64,1.64,0,1,0-1.15,2A1.64,1.64,0,0,0,1439.61,216.37Zm-45.42,68a1.65,1.65,0,1,0-1.16,2A1.65,1.65,0,0,0,1394.19,284.38Zm94.58-14.81a1.65,1.65,0,1,0-1.16,2A1.64,1.64,0,0,0,1488.77,269.57ZM1357.19,330.8a1.64,1.64,0,1,0-1.15,2A1.65,1.65,0,0,0,1357.19,330.8Zm67.1-40.32a1.64,1.64,0,1,0-1.15,2A1.65,1.65,0,0,0,1424.29,290.48Zm42.43.19a1.27,1.27,0,1,0-.88,1.56A1.27,1.27,0,0,0,1466.72,290.67Zm-80.66,190.69a1.65,1.65,0,1,0-1.64-1.64A1.64,1.64,0,0,0,1386.06,481.36Zm-53.64-61.74a1.65,1.65,0,1,0-1.65-1.64A1.64,1.64,0,0,0,1332.42,419.62Zm-54.53,35.93a1.27,1.27,0,1,0-1.26-1.26A1.27,1.27,0,0,0,1277.89,455.55Zm43.9,59.21a1.65,1.65,0,1,0-1.64-1.64A1.65,1.65,0,0,0,1321.79,514.76Zm-14.55-26.82a1.27,1.27,0,1,0,0-2.53,1.27,1.27,0,0,0,0,2.53ZM1428,183.48a1.64,1.64,0,1,0-1.15,2A1.64,1.64,0,0,0,1428,183.48ZM1225.16,392.17a1.64,1.64,0,1,0-1.15,2A1.65,1.65,0,0,0,1225.16,392.17ZM1333.8,276.92a1.26,1.26,0,1,0-.89,1.55A1.26,1.26,0,0,0,1333.8,276.92Zm-14.06,100.44a1.64,1.64,0,1,0-1.15,2A1.64,1.64,0,0,0,1319.74,377.36Zm-131.57,61.23a1.65,1.65,0,1,0-1.16,2A1.65,1.65,0,0,0,1188.17,438.59ZM1528,206a1.64,1.64,0,1,0-1.15,2A1.64,1.64,0,0,0,1528,206ZM1354.83,59a1.65,1.65,0,1,0-2.27-.52A1.65,1.65,0,0,0,1354.83,59Zm41.8,86.12a1.65,1.65,0,1,0-2.27-.51A1.66,1.66,0,0,0,1396.63,145.16Zm55.83-26.27a1.64,1.64,0,1,0-2.27-.51A1.65,1.65,0,0,0,1452.46,118.89ZM1370,130.24a1.26,1.26,0,1,0-1.74-.39A1.26,1.26,0,0,0,1370,130.24ZM1321.56,30.07a1.65,1.65,0,1,0,.1,2.32A1.65,1.65,0,0,0,1321.56,30.07Zm-78.58,122a1.65,1.65,0,1,0,.1,2.32A1.64,1.64,0,0,0,1243,152.08ZM1347.76,264a1.65,1.65,0,1,0-2.27-.51A1.64,1.64,0,0,0,1347.76,264Zm-78.32-23.57a1.64,1.64,0,1,0-2.27-.52A1.64,1.64,0,0,0,1269.44,240.41Zm-26.93,59.49a1.27,1.27,0,1,0-1.35-2.14,1.27,1.27,0,0,0,1.35,2.14Zm68.73,26.63a1.65,1.65,0,1,0-1.76-2.78,1.65,1.65,0,0,0,1.76,2.78Zm55.83-26.27a1.64,1.64,0,0,0-1.75-2.78,1.64,1.64,0,1,0,1.75,2.78Zm-82.45,11.36a1.27,1.27,0,0,0,.39-1.75,1.27,1.27,0,0,0-2.14,1.35A1.28,1.28,0,0,0,1284.62,311.62ZM1166.2,192.69a1.64,1.64,0,1,0,.11,2.32A1.64,1.64,0,0,0,1166.2,192.69Zm-2.11,81.76a1.65,1.65,0,1,0,.11,2.32A1.64,1.64,0,0,0,1164.09,274.45ZM1187.86,2.34a1.27,1.27,0,0,0,.39-1.75,1.25,1.25,0,0,0-1.74-.39,1.26,1.26,0,0,0-.4,1.74A1.28,1.28,0,0,0,1187.86,2.34Zm48.3,209.1a1.65,1.65,0,1,0,.11,2.32A1.64,1.64,0,0,0,1236.16,211.44Zm-78.57,122a1.65,1.65,0,1,0,.1,2.33A1.66,1.66,0,0,0,1157.59,333.45Zm38.53-168.95a1.65,1.65,0,1,0,.1,2.32A1.66,1.66,0,0,0,1196.12,164.5Zm8.74,41.61a.5.5,0,0,0,.71,0,.51.51,0,1,0-.75-.69A.51.51,0,0,0,1204.86,206.11Zm179.22-23.71a1.27,1.27,0,1,0,.08,1.79A1.27,1.27,0,0,0,1384.08,182.4ZM790.86,52.91a1.65,1.65,0,1,0,.65,2.24A1.66,1.66,0,0,0,790.86,52.91Zm17.37,79.92a1.65,1.65,0,1,0,.66,2.24A1.65,1.65,0,0,0,808.23,132.83Zm55-78.32a1.64,1.64,0,1,0,.65,2.23A1.63,1.63,0,0,0,863.27,54.51Zm-50-36.08a1.64,1.64,0,1,0,.65,2.23A1.65,1.65,0,0,0,813.22,18.43Zm3.36,227.83a1.65,1.65,0,1,0,2-1.22A1.65,1.65,0,0,0,816.58,246.26Zm72.52-37.82a1.65,1.65,0,1,0,2-1.21A1.65,1.65,0,0,0,889.1,208.44Zm-22.26-61.38a1.25,1.25,0,0,0,.93,1.52,1.26,1.26,0,1,0-.93-1.52ZM799,176a1.64,1.64,0,1,0,2-1.22A1.65,1.65,0,0,0,799,176Zm144.82,9.52a1.65,1.65,0,0,0,3.2.77,1.65,1.65,0,1,0-3.2-.77Zm-78.22,3.12a1.64,1.64,0,1,0,2-1.22A1.64,1.64,0,0,0,865.64,188.63Zm-37.13-20.56a1.26,1.26,0,1,0,2.46.59,1.26,1.26,0,0,0-2.46-.59ZM990.88,39.6a1.65,1.65,0,1,0,.66,2.24A1.65,1.65,0,0,0,990.88,39.6Zm17.38,79.92a1.65,1.65,0,1,0,.65,2.24A1.64,1.64,0,0,0,1008.26,119.52Zm55-78.32a1.64,1.64,0,1,0,.65,2.23A1.65,1.65,0,0,0,1063.3,41.2ZM1013.24,5.11a1.65,1.65,0,1,0,.65,2.24A1.65,1.65,0,0,0,1013.24,5.11Zm49.93,66.6a1.27,1.27,0,1,0,.5,1.72A1.27,1.27,0,0,0,1063.17,71.71ZM811,280.7a1.64,1.64,0,1,0,2-1.22A1.64,1.64,0,0,0,811,280.7Zm278.14-85.57a1.65,1.65,0,1,0,2-1.21A1.65,1.65,0,0,0,1089.13,195.13ZM938.48,244a1.25,1.25,0,0,0,.93,1.52,1.26,1.26,0,1,0,.59-2.46A1.26,1.26,0,0,0,938.48,244Zm60.59-81.33a1.64,1.64,0,1,0,2-1.22A1.64,1.64,0,0,0,999.07,162.68Zm144.81,9.52a1.65,1.65,0,1,0,2-1.22A1.65,1.65,0,0,0,1143.88,172.2ZM734.05,212.89a1.64,1.64,0,1,0,2-1.21A1.64,1.64,0,0,0,734.05,212.89ZM815.33,425a1.64,1.64,0,1,0,1.75,1.54A1.66,1.66,0,0,0,815.33,425Zm4.73-95.61a1.64,1.64,0,1,0,1.74,1.54A1.63,1.63,0,0,0,820.06,329.37Zm-61.58-3.8a1.65,1.65,0,1,0,1.74,1.54A1.65,1.65,0,0,0,758.48,325.57Zm165.6,120.18a1.64,1.64,0,1,0,1-2.09A1.65,1.65,0,0,0,924.08,445.75ZM830.6,466.38a1.64,1.64,0,0,0,3.11-1.06,1.64,1.64,0,1,0-3.11,1.06Zm127.54-69.25a1.64,1.64,0,1,0,1-2.09A1.64,1.64,0,0,0,958.14,397.13ZM851.29,444a1.27,1.27,0,1,0,.79-1.6A1.26,1.26,0,0,0,851.29,444ZM920,248.65a1.64,1.64,0,1,0,1.74,1.54A1.63,1.63,0,0,0,920,248.65ZM977.37,307a1.65,1.65,0,1,0,1.75,1.54A1.66,1.66,0,0,0,977.37,307Zm52.21-39.23a1.27,1.27,0,1,0,1.34,1.19A1.27,1.27,0,0,0,1029.58,267.72ZM982.1,211.34a1.64,1.64,0,1,0,1.74,1.54A1.64,1.64,0,0,0,982.1,211.34Zm-61.58-3.79a1.64,1.64,0,1,0,1.74,1.54A1.63,1.63,0,0,0,920.52,207.55Zm77.76,29.66a1.26,1.26,0,0,0,.16,2.52,1.26,1.26,0,1,0-.16-2.52Zm46.7,161.2a1.64,1.64,0,1,0,1-2.09A1.65,1.65,0,0,0,1045,398.41Zm41.14-70.69a1.64,1.64,0,1,0,1-2.09A1.65,1.65,0,0,0,1086.12,327.72ZM984.81,449.47a1.27,1.27,0,1,0,.79-1.61A1.27,1.27,0,0,0,984.81,449.47Zm7.83-101.12a1.64,1.64,0,0,0,3.11-1.06,1.64,1.64,0,1,0-3.11,1.06Zm127.54-69.25a1.64,1.64,0,1,0,1-2.09A1.64,1.64,0,0,0,1120.18,279.1Zm-115,129.66a1.65,1.65,0,0,0,3.12-1.06,1.65,1.65,0,1,0-3.12,1.06Zm107.36,33.12a1.26,1.26,0,1,0,1.52-.94A1.26,1.26,0,0,0,1112.56,441.88Zm-12,114.21a.76.76,0,1,0,.48-1A.77.77,0,0,0,1100.53,556.09Zm-6.43-109.58a1.65,1.65,0,1,0,1.75,1.54A1.66,1.66,0,0,0,1094.1,446.51Zm57.36,58.31a1.64,1.64,0,1,0,1.74,1.54A1.64,1.64,0,0,0,1151.46,504.82Zm52.2-39.23a1.25,1.25,0,0,0-1.18,1.34,1.27,1.27,0,0,0,1.34,1.19,1.28,1.28,0,0,0,1.18-1.35A1.26,1.26,0,0,0,1203.66,465.59Zm-36.94,80.63a1.64,1.64,0,1,0,1-2.09A1.64,1.64,0,0,0,1166.72,546.22ZM849,302.74a1.27,1.27,0,1,0,.79-1.61A1.28,1.28,0,0,0,849,302.74Zm-825.3,381a1.65,1.65,0,1,0,1.64,1.64A1.64,1.64,0,0,0,23.66,683.78ZM77.3,745.52A1.64,1.64,0,1,0,79,747.16,1.63,1.63,0,0,0,77.3,745.52Zm54.53-35.93a1.27,1.27,0,1,0,1.26,1.26A1.26,1.26,0,0,0,131.83,709.59Zm-43.9-59.21A1.65,1.65,0,1,0,89.57,652,1.64,1.64,0,0,0,87.93,650.38ZM.76,720.21a.76.76,0,1,0,.76.76A.76.76,0,0,0,.76,720.21ZM139.13,841a1.64,1.64,0,1,0,1.15-2A1.65,1.65,0,0,0,139.13,841Zm45.42-68a1.65,1.65,0,1,0,1.16-2A1.65,1.65,0,0,0,184.55,773Zm-49-43.13a1.27,1.27,0,0,0,2.44-.67,1.27,1.27,0,1,0-2.44.67ZM90,787.78a1.64,1.64,0,1,0,1.15-2A1.65,1.65,0,0,0,90,787.78Zm131.57-61.24a1.65,1.65,0,1,0,1.16-2A1.66,1.66,0,0,0,221.55,726.54Zm-67.1,40.32a1.64,1.64,0,1,0,1.16-2A1.65,1.65,0,0,0,154.45,766.86ZM112,766.67a1.26,1.26,0,1,0,2.44-.66,1.27,1.27,0,0,0-1.56-.89A1.26,1.26,0,0,0,112,766.67ZM192.68,576a1.65,1.65,0,0,0,0,3.29,1.65,1.65,0,1,0,0-3.29Zm53.64,61.73a1.65,1.65,0,1,0,1.65,1.65A1.65,1.65,0,0,0,246.32,637.72Zm54.53-35.93a1.27,1.27,0,1,0,1.27,1.27A1.26,1.26,0,0,0,300.85,601.79ZM257,542.59a1.65,1.65,0,0,0,0,3.29,1.65,1.65,0,1,0,0-3.29ZM195.72,535a1.65,1.65,0,1,0,0,3.29,1.65,1.65,0,0,0,0-3.29ZM150.77,873.87a1.64,1.64,0,1,0,1.15-2A1.64,1.64,0,0,0,150.77,873.87Zm202.81-208.7a1.64,1.64,0,1,0,1.15-2A1.64,1.64,0,0,0,353.58,665.17Zm-40,26.28a.76.76,0,0,0,1.47-.4.76.76,0,0,0-1.47.4Zm-68.6,89a1.27,1.27,0,1,0,.89-1.56A1.27,1.27,0,0,0,244.94,780.43ZM259,680a1.64,1.64,0,1,0,1.15-2A1.64,1.64,0,0,0,259,680Zm131.58-61.23a1.64,1.64,0,1,0,1.15-2A1.63,1.63,0,0,0,390.58,618.75ZM50.71,851.38a1.64,1.64,0,1,0,1.15-2A1.65,1.65,0,0,0,50.71,851.38Zm173.2,146.93a1.65,1.65,0,1,0,2.27.51A1.66,1.66,0,0,0,223.91,998.31Zm26.93-59.49a1.27,1.27,0,1,0,1.74.4A1.26,1.26,0,0,0,250.84,938.82Zm-68.73-26.63a1.64,1.64,0,0,0-.51,2.27,1.65,1.65,0,1,0,2.78-1.76A1.64,1.64,0,0,0,182.11,912.19Zm147.15,52.08a1.65,1.65,0,1,0-.11-2.32A1.64,1.64,0,0,0,329.26,964.27ZM264.77,954a1.26,1.26,0,1,0,1.71-1.86,1.26,1.26,0,0,0-1.71,1.86Zm-7.58,73.32a1.65,1.65,0,1,0-.11-2.32A1.64,1.64,0,0,0,257.19,1027.28Zm78.57-122a1.65,1.65,0,1,0-.1-2.33A1.66,1.66,0,0,0,335.76,905.27Zm-71.2,92.4a1.27,1.27,0,1,0-.08-1.79A1.27,1.27,0,0,0,264.56,997.67ZM231,793.36a1.65,1.65,0,0,0,1.76,2.79,1.65,1.65,0,0,0-1.76-2.79Zm78.32,23.58a1.64,1.64,0,0,0-.51,2.27,1.65,1.65,0,1,0,.51-2.27Zm26.93-59.49a1.27,1.27,0,0,0,1.35,2.14,1.27,1.27,0,1,0-1.35-2.14ZM267.5,730.81a1.65,1.65,0,1,0,2.27.52A1.64,1.64,0,0,0,267.5,730.81Zm-55.83,26.27a1.65,1.65,0,1,0,2.27.51A1.66,1.66,0,0,0,211.67,757.08ZM412.54,864.66a1.65,1.65,0,1,0-.1-2.33A1.64,1.64,0,0,0,412.54,864.66Zm2.11-81.76a1.65,1.65,0,1,0-.1-2.33A1.64,1.64,0,0,0,414.65,782.9Zm-65.87,260.39a1.27,1.27,0,1,0,1.74.39A1.27,1.27,0,0,0,348.78,1043.29ZM384.3,938.35a1.27,1.27,0,0,0,1.71-1.87,1.27,1.27,0,0,0-1.71,1.87Zm-41.72-92.44a1.65,1.65,0,1,0-.11-2.33A1.64,1.64,0,0,0,342.58,845.91Zm78.57-122a1.64,1.64,0,1,0-.1-2.32A1.65,1.65,0,0,0,421.15,723.89Zm-38.52,169a1.65,1.65,0,1,0-.11-2.33A1.64,1.64,0,0,0,382.63,892.85Zm-188-17.91a1.26,1.26,0,1,0-.08-1.78A1.26,1.26,0,0,0,194.66,874.94Zm593.23,129.49a1.64,1.64,0,1,0-.66-2.23A1.64,1.64,0,0,0,787.89,1004.43Zm-17.38-79.92a1.64,1.64,0,1,0-.65-2.23A1.63,1.63,0,0,0,770.51,924.51Zm-65.09,5.31a1.27,1.27,0,1,0-.5-1.72A1.28,1.28,0,0,0,705.42,929.82Zm10.05,73a1.65,1.65,0,1,0-.65-2.23A1.66,1.66,0,0,0,715.47,1002.84Zm50.06,36.08a1.64,1.64,0,1,0-.66-2.23A1.64,1.64,0,0,0,765.53,1038.92Zm-3.37-227.84a1.64,1.64,0,1,0-2,1.22A1.65,1.65,0,0,0,762.16,811.08ZM689.64,848.9a1.64,1.64,0,1,0-2,1.22A1.65,1.65,0,0,0,689.64,848.9Zm90.06,32.46a1.65,1.65,0,1,0-2,1.22A1.65,1.65,0,0,0,779.7,881.36Zm-144.81-9.53a1.64,1.64,0,1,0-2,1.22A1.65,1.65,0,0,0,634.89,871.83Zm78.22-3.11a1.65,1.65,0,1,0-3.2-.77,1.65,1.65,0,0,0,3.2.77Zm-125.25,149a1.64,1.64,0,1,0-.65-2.23A1.63,1.63,0,0,0,587.86,1017.74Zm-17.38-79.92a1.64,1.64,0,1,0-.65-2.23A1.65,1.65,0,0,0,570.48,937.82Zm-65.08,5.31a1.26,1.26,0,1,0-.5-1.72A1.25,1.25,0,0,0,505.4,943.13Zm10.05,73a1.64,1.64,0,1,0-.66-2.23A1.64,1.64,0,0,0,515.45,1016.15Zm50,36.08a1.64,1.64,0,1,0-.65-2.23A1.63,1.63,0,0,0,565.5,1052.23ZM767.76,776.64a1.64,1.64,0,1,0-2,1.22A1.65,1.65,0,0,0,767.76,776.64ZM489.61,862.21a1.64,1.64,0,1,0-2,1.22A1.64,1.64,0,0,0,489.61,862.21Zm90.06,32.46a1.65,1.65,0,1,0-2,1.22A1.64,1.64,0,0,0,579.67,894.67Zm-144.81-9.53a1.64,1.64,0,1,0-2,1.22A1.64,1.64,0,0,0,434.86,885.14ZM844.7,844.45a1.64,1.64,0,1,0-2,1.22A1.65,1.65,0,0,0,844.7,844.45ZM763.41,632.37a1.65,1.65,0,1,0-1.74-1.54A1.65,1.65,0,0,0,763.41,632.37ZM758.68,728a1.64,1.64,0,1,0-1.74-1.54A1.64,1.64,0,0,0,758.68,728Zm61.59,3.79a1.64,1.64,0,1,0-1.75-1.54A1.64,1.64,0,0,0,820.27,731.77ZM782.11,613a.75.75,0,0,0,.71-.8.76.76,0,0,0-.81-.71.77.77,0,0,0-.71.8A.76.76,0,0,0,782.11,613ZM654.66,611.6a1.64,1.64,0,1,0-1,2.08A1.64,1.64,0,0,0,654.66,611.6ZM748.15,591a1.65,1.65,0,1,0-1,2.09A1.65,1.65,0,0,0,748.15,591ZM620.61,660.22a1.65,1.65,0,0,0-3.12,1.06,1.65,1.65,0,0,0,3.12-1.06Zm106.84-46.83a1.26,1.26,0,1,0-.79,1.61A1.26,1.26,0,0,0,727.45,613.39ZM658.72,808.7a1.64,1.64,0,1,0-1.74-1.54A1.64,1.64,0,0,0,658.72,808.7Zm-57.35-58.31a1.64,1.64,0,1,0-1.74-1.54A1.63,1.63,0,0,0,601.37,750.39Zm-52.2,39.23a1.26,1.26,0,1,0-1.35-1.18A1.26,1.26,0,0,0,549.17,789.62ZM596.64,846a1.65,1.65,0,1,0-1.74-1.54A1.65,1.65,0,0,0,596.64,846Zm61.59,3.79a1.64,1.64,0,1,0-1.75-1.54A1.66,1.66,0,0,0,658.23,849.8Zm-77.77-29.66a1.27,1.27,0,1,0-1.34-1.19A1.28,1.28,0,0,0,580.46,820.14Zm-46.7-161.2a1.64,1.64,0,1,0-3.11,1.06,1.64,1.64,0,0,0,3.11-1.06Zm-41.14,70.68a1.64,1.64,0,1,0-1,2.09A1.64,1.64,0,0,0,492.62,729.62ZM586.11,709a1.65,1.65,0,1,0-1,2.09A1.65,1.65,0,0,0,586.11,709ZM458.57,778.24a1.65,1.65,0,1,0-1,2.09A1.64,1.64,0,0,0,458.57,778.24Zm115-129.65a1.64,1.64,0,1,0-1,2.09A1.65,1.65,0,0,0,573.54,648.59ZM466.18,615.47a1.26,1.26,0,0,0-2.46-.59,1.28,1.28,0,0,0,.94,1.53A1.26,1.26,0,0,0,466.18,615.47Zm18.46-4.64a1.64,1.64,0,1,0-1.74-1.54A1.64,1.64,0,0,0,484.64,610.83Zm-57.35-58.31a1.64,1.64,0,1,0-1.75-1.54A1.64,1.64,0,0,0,427.29,552.52ZM412,511.13a1.64,1.64,0,1,0-1,2.09A1.65,1.65,0,0,0,412,511.13ZM395.8,568.65a.51.51,0,0,0,.64.31.5.5,0,0,0,.32-.64.51.51,0,0,0-.64-.31A.5.5,0,0,0,395.8,568.65ZM1555.08,873.57a1.65,1.65,0,1,0-1.64-1.65A1.65,1.65,0,0,0,1555.08,873.57Zm-53.64-61.74a1.65,1.65,0,1,0-1.64-1.64A1.65,1.65,0,0,0,1501.44,811.83ZM1490.81,907a1.65,1.65,0,1,0-1.64-1.65A1.65,1.65,0,0,0,1490.81,907Zm61.24,7.59a1.65,1.65,0,1,0-1.65-1.64A1.64,1.64,0,0,0,1552.05,914.56ZM1439.61,716.37a1.64,1.64,0,1,0-1.15,2A1.64,1.64,0,0,0,1439.61,716.37Zm-45.42,68a1.65,1.65,0,1,0-1.16,2A1.65,1.65,0,0,0,1394.19,784.38Zm49,43.14a1.26,1.26,0,1,0-.88,1.55A1.26,1.26,0,0,0,1443.21,827.52Zm45.56-57.95a1.65,1.65,0,1,0-1.16,2A1.64,1.64,0,0,0,1488.77,769.57ZM1357.19,830.8a1.64,1.64,0,1,0-1.15,2A1.65,1.65,0,0,0,1357.19,830.8Zm67.1-40.32a1.64,1.64,0,1,0-1.15,2A1.65,1.65,0,0,0,1424.29,790.48Zm42.43.19a1.27,1.27,0,1,0-.88,1.56A1.27,1.27,0,0,0,1466.72,790.67Zm-80.66,190.69a1.65,1.65,0,1,0-1.64-1.64A1.64,1.64,0,0,0,1386.06,981.36Zm-53.64-61.74a1.65,1.65,0,1,0-1.65-1.64A1.64,1.64,0,0,0,1332.42,919.62Zm-54.53,35.93a1.27,1.27,0,1,0-1.26-1.26A1.27,1.27,0,0,0,1277.89,955.55Zm43.9,59.21a1.65,1.65,0,1,0-1.64-1.64A1.65,1.65,0,0,0,1321.79,1014.76Zm61.23,7.59a1.65,1.65,0,1,0-1.64-1.64A1.65,1.65,0,0,0,1383,1022.35Zm-75.78-34.41a1.27,1.27,0,1,0,0-2.53,1.27,1.27,0,0,0,0,2.53ZM1428,683.48a1.64,1.64,0,1,0-1.15,2A1.64,1.64,0,0,0,1428,683.48ZM1225.16,892.17a1.64,1.64,0,1,0-1.15,2A1.65,1.65,0,0,0,1225.16,892.17Zm94.58-14.81a1.64,1.64,0,1,0-1.15,2A1.64,1.64,0,0,0,1319.74,877.36Zm-131.57,61.23a1.65,1.65,0,1,0-1.16,2A1.65,1.65,0,0,0,1188.17,938.59ZM1528,706a1.64,1.64,0,1,0-1.15,2A1.64,1.64,0,0,0,1528,706ZM1354.83,559a1.65,1.65,0,1,0-2.27-.52A1.65,1.65,0,0,0,1354.83,559Zm33.29-30a.76.76,0,1,0-1-.24A.76.76,0,0,0,1388.12,529.05Zm-60.22,89.47a1.26,1.26,0,1,0-1.74-.39A1.26,1.26,0,0,0,1327.9,618.52Zm68.73,26.64a1.65,1.65,0,1,0-2.27-.51A1.66,1.66,0,0,0,1396.63,645.16Zm55.83-26.27a1.64,1.64,0,1,0-2.27-.51A1.65,1.65,0,0,0,1452.46,618.89Zm-203-25.81a1.64,1.64,0,1,0,.11,2.32A1.63,1.63,0,0,0,1249.48,593.08Zm64.49,10.3a1.27,1.27,0,1,0,.08,1.79A1.27,1.27,0,0,0,1314,603.38Zm7.59-73.31a1.65,1.65,0,1,0,.1,2.32A1.65,1.65,0,0,0,1321.56,530.07Zm-78.58,122a1.65,1.65,0,1,0,.1,2.32A1.64,1.64,0,0,0,1243,652.08ZM1347.76,764a1.65,1.65,0,1,0-2.27-.51A1.64,1.64,0,0,0,1347.76,764Zm-78.32-23.57a1.64,1.64,0,1,0-2.27-.52A1.64,1.64,0,0,0,1269.44,740.41Zm41.8,86.12a1.65,1.65,0,1,0-1.76-2.78,1.65,1.65,0,0,0,1.76,2.78Zm55.83-26.27a1.64,1.64,0,0,0-1.75-2.78,1.64,1.64,0,1,0,1.75,2.78ZM1166.2,692.69a1.64,1.64,0,1,0,.11,2.32A1.64,1.64,0,0,0,1166.2,692.69Zm-2.11,81.76a1.65,1.65,0,1,0,.11,2.32A1.64,1.64,0,0,0,1164.09,774.45ZM1230,514.06a1.27,1.27,0,0,0,.39-1.75,1.27,1.27,0,1,0-.39,1.75ZM1194.44,619a1.26,1.26,0,1,0,.08,1.79A1.27,1.27,0,0,0,1194.44,619Zm41.72,92.44a1.65,1.65,0,1,0,.11,2.32A1.64,1.64,0,0,0,1236.16,711.44Zm-78.57,122a1.65,1.65,0,1,0,.1,2.33A1.66,1.66,0,0,0,1157.59,833.45Zm38.53-169a1.65,1.65,0,1,0,.1,2.32A1.66,1.66,0,0,0,1196.12,664.5Zm188,17.9a1.27,1.27,0,1,0,.08,1.79A1.27,1.27,0,0,0,1384.08,682.4ZM790.86,552.91a1.65,1.65,0,1,0,.65,2.24A1.66,1.66,0,0,0,790.86,552.91Zm17.37,79.92a1.65,1.65,0,1,0,.66,2.24A1.65,1.65,0,0,0,808.23,632.83Zm55-78.32a1.64,1.64,0,1,0,.65,2.23A1.63,1.63,0,0,0,863.27,554.51Zm-50-36.08a1.64,1.64,0,1,0,.65,2.23A1.65,1.65,0,0,0,813.22,518.43ZM863.14,585a1.27,1.27,0,1,0,.5,1.72A1.27,1.27,0,0,0,863.14,585Zm26,123.42a1.65,1.65,0,1,0,2-1.21A1.65,1.65,0,0,0,889.1,708.44Zm-22.26-61.38a1.25,1.25,0,0,0,.93,1.52,1.26,1.26,0,1,0-.93-1.52ZM799,676a1.64,1.64,0,1,0,2-1.22A1.65,1.65,0,0,0,799,676Zm144.82,9.52a1.65,1.65,0,0,0,3.2.77,1.65,1.65,0,1,0-3.2-.77Zm-78.22,3.12a1.64,1.64,0,1,0,2-1.22A1.64,1.64,0,0,0,865.64,688.63Zm125.24-149a1.65,1.65,0,1,0,.66,2.24A1.65,1.65,0,0,0,990.88,539.6Zm17.38,79.92a1.65,1.65,0,1,0,.65,2.24A1.64,1.64,0,0,0,1008.26,619.52Zm55-78.32a1.64,1.64,0,1,0,.65,2.23A1.65,1.65,0,0,0,1063.3,541.2Zm-50.06-36.09a1.65,1.65,0,1,0,.65,2.24A1.65,1.65,0,0,0,1013.24,505.11ZM811,780.7a1.64,1.64,0,1,0,2-1.22A1.64,1.64,0,0,0,811,780.7Zm278.14-85.57a1.65,1.65,0,1,0,2-1.21A1.65,1.65,0,0,0,1089.13,695.13Zm-90.06-32.45a1.64,1.64,0,1,0,2-1.22A1.64,1.64,0,0,0,999.07,662.68Zm144.81,9.52a1.65,1.65,0,1,0,2-1.22A1.65,1.65,0,0,0,1143.88,672.2ZM734.05,712.89a1.64,1.64,0,1,0,2-1.21A1.64,1.64,0,0,0,734.05,712.89ZM815.33,925a1.64,1.64,0,1,0,1.75,1.54A1.66,1.66,0,0,0,815.33,925Zm-22.5-9.25a.75.75,0,0,0-.71.8.76.76,0,1,0,.71-.8Zm27.23-86.36a1.64,1.64,0,1,0,1.74,1.54A1.63,1.63,0,0,0,820.06,829.37Zm-61.58-3.8a1.65,1.65,0,1,0,1.74,1.54A1.65,1.65,0,0,0,758.48,825.57Zm165.6,120.18a1.64,1.64,0,1,0,1-2.09A1.65,1.65,0,0,0,924.08,945.75Zm-51.6-40a1.27,1.27,0,1,0,.79-1.6A1.26,1.26,0,0,0,872.48,905.72ZM830.6,966.38a1.64,1.64,0,0,0,3.11-1.06,1.64,1.64,0,1,0-3.11,1.06Zm127.54-69.25a1.64,1.64,0,1,0,1-2.09A1.64,1.64,0,0,0,958.14,897.13ZM920,748.65a1.64,1.64,0,1,0,1.74,1.54A1.63,1.63,0,0,0,920,748.65ZM977.37,807a1.65,1.65,0,1,0,1.75,1.54A1.66,1.66,0,0,0,977.37,807Zm4.73-95.61a1.64,1.64,0,1,0,1.74,1.54A1.64,1.64,0,0,0,982.1,711.34Zm-61.58-3.79a1.64,1.64,0,1,0,1.74,1.54A1.63,1.63,0,0,0,920.52,707.55ZM1045,898.41a1.64,1.64,0,1,0,1-2.09A1.65,1.65,0,0,0,1045,898.41Zm41.14-70.69a1.64,1.64,0,1,0,1-2.09A1.65,1.65,0,0,0,1086.12,827.72ZM984.81,949.47a1.27,1.27,0,1,0,.79-1.61A1.27,1.27,0,0,0,984.81,949.47Zm7.83-101.12a1.64,1.64,0,0,0,3.11-1.06,1.64,1.64,0,1,0-3.11,1.06Zm127.54-69.25a1.64,1.64,0,1,0,1-2.09A1.64,1.64,0,0,0,1120.18,779.1Zm-115,129.66a1.65,1.65,0,0,0,3.12-1.06,1.65,1.65,0,0,0-3.12,1.06Zm107.36,33.12a1.26,1.26,0,1,0,1.52-.94A1.26,1.26,0,0,0,1112.56,941.88Zm-12,114.21a.76.76,0,1,0,.48-1A.77.77,0,0,0,1100.53,1056.09Zm-6.43-109.58a1.65,1.65,0,1,0,1.75,1.54A1.66,1.66,0,0,0,1094.1,946.51Zm57.36,58.31a1.64,1.64,0,1,0,1.74,1.54A1.64,1.64,0,0,0,1151.46,1004.82Zm52.2-39.23a1.25,1.25,0,0,0-1.18,1.34,1.27,1.27,0,0,0,1.34,1.19,1.28,1.28,0,0,0,1.18-1.35A1.26,1.26,0,0,0,1203.66,965.59Zm-36.94,80.63a1.64,1.64,0,1,0,1-2.09A1.64,1.64,0,0,0,1166.72,1046.22Z"/></g></g></svg>